<svg width="27" height="28" viewBox="0 0 27 28" fill="none" xmlns="http://www.w3.org/2000/svg">
<g id="linkedin-box-fill">
<path id="Vector" d="M20.6359 20.6429H17.6361V15.9414C17.6361 14.8203 17.6133 13.3776 16.0729 13.3776C14.5089 13.3776 14.27 14.5975 14.27 15.8587V20.6429H11.2702V10.9749H14.1518V12.2927H14.1906C14.5933 11.5329 15.5724 10.7309 17.0351 10.7309C20.0746 10.7309 20.6368 12.7318 20.6368 15.3362L20.6359 20.6429ZM7.88218 9.65203C6.91658 9.65203 6.14089 8.87028 6.14089 7.90872C6.14089 6.948 6.91742 6.1671 7.88218 6.1671C8.84441 6.1671 9.62432 6.948 9.62432 7.90872C9.62432 8.87028 8.84356 9.65203 7.88218 9.65203ZM9.38629 20.6429H6.37807V10.9749H9.38629V20.6429ZM22.1366 3.37695H4.87227C4.04594 3.37695 3.37744 4.03038 3.37744 4.83661V22.1786C3.37744 22.9856 4.04594 23.6382 4.87227 23.6382H22.1341C22.9596 23.6382 23.6349 22.9856 23.6349 22.1786V4.83661C23.6349 4.03038 22.9596 3.37695 22.1341 3.37695H22.1366Z" fill="white"/>
</g>
</svg>
