<svg width="22" height="22" viewBox="0 0 22 22" fill="none" xmlns="http://www.w3.org/2000/svg">
<g id="search-line">
<path id="Vector" d="M16.5286 15.2321L20.4544 19.1579L19.158 20.4542L15.2322 16.5284C13.8207 17.6577 12.0305 18.3333 10.0835 18.3333C5.5295 18.3333 1.8335 14.6373 1.8335 10.0833C1.8335 5.52933 5.5295 1.83333 10.0835 1.83333C14.6375 1.83333 18.3335 5.52933 18.3335 10.0833C18.3335 12.0303 17.6579 13.8205 16.5286 15.2321ZM14.6895 14.5519C15.8104 13.3967 16.5002 11.821 16.5002 10.0833C16.5002 6.53812 13.6287 3.66667 10.0835 3.66667C6.53829 3.66667 3.66683 6.53812 3.66683 10.0833C3.66683 13.6285 6.53829 16.5 10.0835 16.5C11.8211 16.5 13.3969 15.8102 14.5521 14.6893L14.6895 14.5519Z" fill="white" fill-opacity="0.6"/>
</g>
</svg>
