<svg width="28" height="28" viewBox="0 0 28 28" fill="none" xmlns="http://www.w3.org/2000/svg">
<g id="youtube-fill">
<path id="Vector" d="M13.7822 4.50244C14.3834 4.50575 15.8876 4.52029 17.4858 4.58431L18.0524 4.60902C19.6615 4.6852 21.2692 4.81534 22.0666 5.03768C23.1302 5.33647 23.9662 6.20833 24.2487 7.31349C24.6987 9.06844 24.7549 12.4937 24.7619 13.3226L24.7629 13.4944V13.5064C24.7629 13.5064 24.7629 13.5106 24.7629 13.5186L24.7619 13.6904C24.7549 14.5193 24.6987 17.9445 24.2487 19.6995C23.9623 20.8087 23.1263 21.6806 22.0666 21.9753C21.2692 22.1976 19.6615 22.3277 18.0524 22.4039L17.4858 22.4286C15.8876 22.4926 14.3834 22.5071 13.7822 22.5105L13.5184 22.5114H13.5067C13.5067 22.5114 13.5028 22.5114 13.495 22.5114L13.2314 22.5105C11.959 22.5035 6.63883 22.446 4.94678 21.9753C3.88317 21.6764 3.04719 20.8046 2.7646 19.6995C2.31472 17.9445 2.25849 14.5193 2.25146 13.6904V13.3226C2.25849 12.4937 2.31472 9.06844 2.7646 7.31349C3.05111 6.20423 3.88709 5.33239 4.94678 5.03768C6.63883 4.56686 11.959 4.50944 13.2314 4.50244H13.7822ZM11.2555 9.56678V17.4461L18.0092 13.5064L11.2555 9.56678Z" fill="white"/>
</g>
</svg>
